<svg xmlns:dc="http://purl.org/dc/elements/1.1/" xmlns:cc="http://creativecommons.org/ns#" xmlns:rdf="http://www.w3.org/1999/02/22-rdf-syntax-ns#" xmlns:svg="http://www.w3.org/2000/svg" xmlns="http://www.w3.org/2000/svg" xmlns:sodipodi="http://sodipodi.sourceforge.net/DTD/sodipodi-0.dtd" xmlns:inkscape="http://www.inkscape.org/namespaces/inkscape" viewBox="0 0 8.4666667 10.583333625" version="1.1" x="0px" y="0px"><svg:g><svg:path style="color:#000000;font-style:normal;font-variant:normal;font-weight:normal;font-stretch:normal;font-size:medium;line-height:normal;font-family:sans-serif;font-variant-ligatures:normal;font-variant-position:normal;font-variant-caps:normal;font-variant-numeric:normal;font-variant-alternates:normal;font-feature-settings:normal;text-indent:0;text-align:start;text-decoration:none;text-decoration-line:none;text-decoration-style:solid;text-decoration-color:#000000;letter-spacing:normal;word-spacing:normal;text-transform:none;writing-mode:lr-tb;direction:ltr;text-orientation:mixed;dominant-baseline:auto;baseline-shift:baseline;text-anchor:start;white-space:normal;shape-padding:0;clip-rule:nonzero;display:inline;overflow:visible;visibility:visible;opacity:1;isolation:auto;mix-blend-mode:normal;color-interpolation:sRGB;color-interpolation-filters:linearRGB;solid-color:#000000;solid-opacity:1;vector-effect:none;fill:#000000;fill-opacity:1;fill-rule:nonzero;stroke:none;stroke-width:0.5291667;stroke-linecap:round;stroke-linejoin:round;stroke-miterlimit:4;stroke-dasharray:none;stroke-dashoffset:0;stroke-opacity:1;paint-order:stroke fill markers;color-rendering:auto;image-rendering:auto;shape-rendering:auto;text-rendering:auto;enable-background:accumulate" d="m 3.7120612,0.51749909 c -2.048973,0 -3.71450121,1.66811101 -3.71450121,3.71708601 0,2.031875 1.63841371,3.684435 3.66386001,3.711918 1.72e-4,2e-6 3.413e-4,-2e-6 5.159e-4,0 a 0.26464799,0.26464799 0 0 0 0.03669,0.0026 h 0.013435 4.4865475 a 0.26464799,0.26464799 0 1 0 0,-0.529167 H 5.6142725 c 1.0847678,-0.649378 1.814875,-1.831753 1.814875,-3.185335 0,-2.048975 -1.6681133,-3.71708601 -3.7170863,-3.71708601 z m 0,0.52916701 c 1.7629928,0 3.1879196,1.424927 3.1879196,3.187919 0,1.762991 -1.4249268,3.185335 -3.1879196,3.185335 -1.7629901,0 -3.18533455,-1.422344 -3.18533455,-3.185335 0,-1.762992 1.42234445,-3.187919 3.18533455,-3.187919 z m 0,0.267684 c -0.5810038,0 -1.0562642,0.475778 -1.0562642,1.056783 0,0.581004 0.4752604,1.058333 1.0562642,1.058333 0.5810065,0 1.0588519,-0.477329 1.0588519,-1.058333 0,-0.581005 -0.4778454,-1.056783 -1.0588519,-1.056783 z m 0,0.529166 c 0.2950237,0 0.5296853,0.232595 0.5296853,0.527617 0,0.295021 -0.2346616,0.529166 -0.5296853,0.529166 -0.295021,0 -0.5270976,-0.234145 -0.5270976,-0.529166 0,-0.295022 0.2320766,-0.527617 0.5270976,-0.527617 z m -1.8613834,1.332219 c -0.5810065,0 -1.05833594,0.477845 -1.0583333,1.05885 0,0.581005 0.4773268,1.056266 1.0583333,1.056266 0.5810038,0 1.0567829,-0.475261 1.0567829,-1.056266 0,-0.581005 -0.4757791,-1.05885 -1.0567829,-1.05885 z m 3.7248359,0 c -0.5810038,0 -1.0583333,0.477845 -1.0583333,1.05885 0,0.581005 0.4773295,1.056266 1.0583333,1.056266 0.5810091,0 1.0567829,-0.475261 1.0567829,-1.056266 0,-0.581005 -0.4757738,-1.05885 -1.0567829,-1.05885 z m -3.7248359,0.529166 c 0.295021,0 0.5296826,0.234662 0.5296826,0.529684 0,0.295022 -0.2346616,0.5271 -0.5296826,0.5271 -0.2950236,0 -0.5291666,-0.232078 -0.5291666,-0.5271 0,-0.295022 0.234143,-0.529684 0.5291666,-0.529684 z m 3.7248359,0 c 0.2950183,0 0.5276162,0.234662 0.5276162,0.529684 0,0.295022 -0.2325979,0.5271 -0.5276162,0.5271 -0.295021,0 -0.5291667,-0.232078 -0.5291667,-0.5271 0,-0.295022 0.2341457,-0.529684 0.5291667,-0.529684 z m -1.8634525,1.334286 c -0.5810038,0 -1.0562642,0.475261 -1.0562642,1.056266 0,0.581005 0.4752604,1.05885 1.0562642,1.05885 0.5810065,0 1.0588519,-0.477845 1.0588519,-1.05885 0,-0.581005 -0.4778454,-1.056266 -1.0588519,-1.056266 z m 0,0.529167 c 0.2950237,0 0.5296853,0.232077 0.5296853,0.527099 0,0.295022 -0.2346616,0.529683 -0.5296853,0.529683 -0.295021,0 -0.5270976,-0.234661 -0.5270976,-0.529683 0,-0.295022 0.2320766,-0.527099 0.5270976,-0.527099 z"/></svg:g><text x="0" y="23.4666669" fill="#000000" font-size="5px" font-weight="bold" font-family="'Helvetica Neue', Helvetica, Arial-Unicode, Arial, Sans-serif">Created by Larea</text><text x="0" y="28.4666669" fill="#000000" font-size="5px" font-weight="bold" font-family="'Helvetica Neue', Helvetica, Arial-Unicode, Arial, Sans-serif">from the Noun Project</text></svg>